<svg width="41" height="42" viewBox="0 0 41 42" fill="none" xmlns="http://www.w3.org/2000/svg">
<g clip-path="url(#clip0_1_94)" filter="url(#filter0_d_1_94)">
<path d="M18.3797 0.710119C18.4253 0.709567 18.4709 0.709014 18.5179 0.708444C18.6681 0.706849 18.8183 0.706262 18.9686 0.705823C19.0737 0.705227 19.1788 0.704621 19.284 0.704006C19.5043 0.702912 19.7246 0.7024 19.9449 0.702208C20.2258 0.701851 20.5065 0.699352 20.7873 0.696314C21.0046 0.694328 21.2218 0.693859 21.439 0.693792C21.5425 0.693515 21.6459 0.692696 21.7493 0.691301C22.4284 0.682873 22.9969 0.725711 23.5187 1.21113C23.6656 1.46577 23.7628 1.7267 23.857 2.00464C23.8772 2.06258 23.8975 2.12053 23.9184 2.18023C24.0698 2.62675 24.1783 3.07557 24.2433 3.54279C24.2667 3.70242 24.2667 3.70242 24.355 3.91797C24.5229 4.01521 24.6389 4.06519 24.8198 4.11718C24.9049 4.1483 24.9897 4.17995 25.0743 4.21212C25.1624 4.24417 25.2505 4.27616 25.3386 4.3081C25.6585 4.4244 25.9575 4.54912 26.2559 4.71484C26.4571 4.81832 26.5196 4.85039 26.7498 4.8269C26.9674 4.70187 27.1755 4.56774 27.3822 4.42535C27.834 4.11829 28.3127 3.8564 28.7941 3.59916C28.9314 3.53119 28.9314 3.53119 29.0034 3.45312C29.1267 3.44197 29.1267 3.44197 29.2815 3.44067C29.3318 3.43973 29.382 3.43879 29.4338 3.43782C29.8023 3.47152 30.0403 3.59339 30.2976 3.85493C30.3528 3.91033 30.408 3.96573 30.4648 4.02281C30.5523 4.11267 30.5523 4.11267 30.6415 4.20434C30.7345 4.29815 30.8275 4.39195 30.9205 4.48575C31.0502 4.61684 31.1792 4.74853 31.3082 4.88022C31.5345 5.11096 31.7619 5.34073 31.9892 5.57052C32.11 5.69282 32.2306 5.81534 32.351 5.93812C32.4055 5.99352 32.4601 6.04892 32.5163 6.106C32.5642 6.15485 32.6121 6.2037 32.6614 6.25404C32.7932 6.38628 32.7932 6.38628 32.9878 6.50781C32.9878 6.55164 32.9878 6.59547 32.9878 6.64062C33.0536 6.66254 33.1193 6.68445 33.187 6.70703C33.187 6.75086 33.187 6.79468 33.187 6.83984C33.2528 6.86175 33.3185 6.88367 33.3863 6.90625C33.3863 6.95008 33.3863 6.9939 33.3863 7.03906C33.452 7.06097 33.5177 7.08289 33.5855 7.10547C33.7886 7.40709 33.9746 7.73011 33.9839 8.10156C33.8879 8.48918 33.717 8.79917 33.4527 9.09765C33.3077 9.30163 33.2549 9.41923 33.2202 9.67041C33.1837 9.91716 33.1595 9.93523 32.9878 10.0937C32.8357 10.3924 32.7467 10.6217 32.7886 10.957C32.8316 11.0688 32.8752 11.1805 32.9263 11.2888C33.0252 11.5027 33.1054 11.724 33.1894 11.944C33.248 12.0961 33.248 12.0961 33.3863 12.2187C33.4138 12.377 33.4138 12.377 33.4278 12.5591C33.4327 12.6195 33.4377 12.6799 33.4428 12.7422C33.4461 12.7886 33.4493 12.835 33.4527 12.8828C33.5199 12.8877 33.5199 12.8877 33.5886 12.8927C33.6478 12.8976 33.7071 12.9026 33.7681 12.9077C33.8266 12.9123 33.8852 12.917 33.9455 12.9217C34.1167 12.9492 34.1167 12.9492 34.2454 13.0156C34.4295 13.1049 34.594 13.1103 34.7974 13.1235C34.869 13.1285 34.9405 13.1335 35.0142 13.1386C35.0959 13.1435 35.0959 13.1435 35.1792 13.1484C35.2011 13.2142 35.2231 13.2799 35.2456 13.3477C35.3231 13.3385 35.4006 13.3293 35.4804 13.3199C35.7289 13.3202 35.8451 13.3744 36.0298 13.5393C36.1115 13.6221 36.1918 13.7063 36.2708 13.7917C36.3122 13.8333 36.3536 13.8749 36.3962 13.9177C36.7494 14.2847 36.7808 14.5543 36.7837 15.0635C36.784 15.1078 36.7843 15.1521 36.7847 15.1977C36.7856 15.3434 36.7861 15.4891 36.7865 15.6348C36.7868 15.7364 36.7872 15.838 36.7876 15.9396C36.7883 16.1523 36.7887 16.3649 36.7889 16.5775C36.7893 16.8498 36.7909 17.1222 36.7928 17.3945C36.794 17.6042 36.7944 17.8139 36.7945 18.0236C36.7947 18.124 36.7952 18.2245 36.7961 18.3249C36.7972 18.4652 36.7971 18.6055 36.7966 18.7459C36.7969 18.8257 36.7971 18.9055 36.7974 18.9877C36.7707 19.21 36.7211 19.2936 36.5738 19.457C36.5131 19.5863 36.4583 19.7167 36.4046 19.849C36.1428 20.2269 35.7411 20.3785 35.312 20.4905C35.2634 20.504 35.2148 20.5175 35.1648 20.5314C35.0149 20.5728 34.8647 20.6128 34.7144 20.6523C34.5749 20.6894 34.4354 20.7264 34.296 20.7635C34.1738 20.7957 34.0513 20.8272 33.9289 20.8586C33.8594 20.8782 33.7899 20.8978 33.7183 20.918C33.6583 20.9317 33.5983 20.9454 33.5364 20.9595C33.3036 21.101 33.265 21.3211 33.1912 21.5696C33.0467 22.0203 32.8783 22.4327 32.6625 22.8549C32.55 23.1441 32.5484 23.3445 32.6695 23.6308C32.7047 23.6915 32.7399 23.7523 32.7761 23.8149C32.8108 23.8761 32.8455 23.9372 32.8812 24.0001C32.9821 24.1686 32.9821 24.1686 33.0882 24.3044C33.205 24.4617 33.2942 24.6257 33.3863 24.7986C33.484 24.9816 33.5793 25.1588 33.6955 25.3309C33.8664 25.6549 33.8284 26.0078 33.7847 26.3633C33.5729 27.0053 32.8186 27.548 32.3222 27.9739C32.0055 28.2536 31.689 28.538 31.4605 28.895C31.3003 29.1252 31.1157 29.257 30.8919 29.4226C30.7202 29.5585 30.5711 29.705 30.4187 29.8621C29.8644 30.4221 29.8644 30.4221 29.4309 30.4597C28.9413 30.4426 28.4172 30.1599 28.0738 29.8164C27.9413 29.7712 27.8084 29.7271 27.6753 29.6836C27.4288 29.5796 27.1842 29.4712 26.9448 29.3516C26.4245 29.2432 26.059 29.4433 25.6159 29.6836C25.2883 29.858 24.9956 29.9529 24.6232 29.9923C24.4732 30.0047 24.4732 30.0047 24.355 30.1484C24.3131 30.3117 24.2768 30.4733 24.2429 30.6382C24.1411 31.0943 24.0171 31.5395 23.8694 31.9829C23.8436 32.0654 23.8436 32.0654 23.8172 32.1495C23.6455 32.6488 23.3788 32.9243 22.9441 33.214C22.5188 33.4179 22.0393 33.3741 21.5784 33.3712C21.4762 33.3714 21.374 33.3716 21.2718 33.372C21.0584 33.3724 20.845 33.3718 20.6315 33.3706C20.3591 33.3691 20.0868 33.3699 19.8144 33.3715C19.6036 33.3725 19.3928 33.3722 19.182 33.3715C19.0816 33.3713 18.9812 33.3715 18.8808 33.3721C18.2491 33.3752 17.7995 33.3511 17.2906 32.9437C16.9229 32.539 16.7745 32.1413 16.6353 31.6177C16.5732 31.3974 16.5106 31.1772 16.4468 30.9575C16.4071 30.8188 16.3699 30.6794 16.3356 30.5393C16.2339 30.1758 16.2339 30.1758 15.9775 29.9132C15.8005 29.8339 15.6262 29.7752 15.44 29.7209C15.3178 29.6812 15.1957 29.6411 15.0737 29.6008C14.9854 29.5728 14.9854 29.5728 14.8954 29.5441C14.6895 29.4715 14.5017 29.3782 14.3107 29.273C14.0883 29.1688 13.8951 29.1565 13.6636 29.2187C13.4706 29.3223 13.2926 29.4369 13.1132 29.5625C12.9266 29.688 12.7361 29.7833 12.5347 29.8828C12.4057 29.9625 12.277 30.0428 12.1487 30.1235C11.7136 30.3782 11.4067 30.448 10.9119 30.385C10.1317 30.0428 9.52754 29.2796 8.94045 28.6833C8.79894 28.54 8.65733 28.3967 8.51551 28.2537C8.42795 28.1653 8.34056 28.0768 8.2534 27.988C8.00372 27.7357 7.74613 27.4978 7.47576 27.2677C7.04597 26.885 6.83107 26.543 6.7864 25.9607C6.79699 25.4705 7.03826 25.1098 7.2886 24.7031C7.34106 24.615 7.39337 24.5268 7.44554 24.4385C7.84473 23.7652 7.84473 23.7652 8.00765 23.5369C8.11317 23.3174 8.08585 23.2088 8.01907 22.9766C7.95189 22.829 7.8795 22.6838 7.80325 22.5408C7.60317 22.1589 7.44452 21.7743 7.30442 21.3657C7.21255 21.1622 7.12572 21.0626 6.95657 20.918C6.78989 20.8507 6.78989 20.8507 6.60534 20.8142C6.53729 20.7983 6.46923 20.7824 6.39912 20.766C6.32833 20.7504 6.25753 20.7348 6.18459 20.7187C4.59215 20.3605 4.59215 20.3605 4.15869 19.709C4.02063 19.4591 4.00141 19.2528 4.00138 18.9656C4.00102 18.9189 4.00066 18.8722 4.00029 18.824C3.99946 18.6711 4.00055 18.5182 4.00175 18.3652C4.00174 18.2581 4.00164 18.1511 4.00146 18.044C4.00136 17.8202 4.00219 17.5965 4.00371 17.3727C4.0056 17.0865 4.00541 16.8004 4.00457 16.5142C4.0041 16.2933 4.00462 16.0724 4.00545 15.8516C4.00575 15.7461 4.00577 15.6406 4.00551 15.5351C4.00532 15.3874 4.00642 15.2399 4.00786 15.0922C4.00822 15.0084 4.00858 14.9246 4.00895 14.8382C4.05389 14.4388 4.24961 14.1319 4.53378 13.8569C4.82959 13.6583 5.16767 13.5784 5.50834 13.4844C5.69684 13.432 5.87156 13.3761 6.05178 13.302C6.30373 13.2108 6.54742 13.1576 6.81053 13.1106C6.96739 13.0832 6.96739 13.0832 7.15579 13.0156C7.22841 12.8939 7.22841 12.8939 7.28211 12.742C7.31531 12.6569 7.31531 12.6569 7.34917 12.5701C7.37164 12.5103 7.39411 12.4505 7.41726 12.3889C7.46214 12.2728 7.50701 12.1567 7.55189 12.0405C7.57405 11.9826 7.59621 11.9247 7.61904 11.865C7.68822 11.6844 7.75779 11.5041 7.82841 11.3241C7.84909 11.2711 7.86976 11.2181 7.89107 11.1635C7.95266 11.0234 7.95266 11.0234 8.08547 10.8242C8.06711 10.5365 8.00291 10.3784 7.81985 10.1602C7.75272 10.0499 7.68639 9.93919 7.62063 9.82812C7.59084 9.78104 7.56105 9.73396 7.53036 9.68545C7.32156 9.35114 7.13668 9.00798 6.96487 8.65356C6.94426 8.61257 6.92365 8.57158 6.90242 8.52934C6.7663 8.24134 6.71688 8.01942 6.75735 7.70312C6.91837 7.35748 7.13062 7.09734 7.39236 6.82324C7.42433 6.789 7.4563 6.75476 7.48924 6.71948C7.57666 6.62617 7.66501 6.53375 7.75344 6.4414C7.79102 6.40066 7.8286 6.35991 7.86732 6.31793C7.95266 6.24218 7.95266 6.24218 8.08547 6.24218C8.11834 6.14357 8.11834 6.14357 8.15188 6.04297C8.19571 6.04297 8.23954 6.04297 8.28469 6.04297C8.31756 5.94435 8.31756 5.94435 8.3511 5.84375C8.44461 5.75237 8.44461 5.75237 8.56899 5.65179C8.81988 5.43914 9.05007 5.21319 9.27871 4.97735C9.31383 4.94139 9.34895 4.90542 9.38513 4.86836C9.53137 4.71858 9.67748 4.56869 9.82231 4.41754C9.92948 4.30592 10.0377 4.19541 10.1461 4.08502C10.178 4.05119 10.21 4.01736 10.2428 3.98251C10.4883 3.73516 10.7384 3.60034 11.0738 3.51953C11.7735 3.51953 12.3552 3.9636 12.9331 4.3164C13.087 4.40721 13.2419 4.49498 13.398 4.58203C13.4637 4.62175 13.5295 4.66147 13.5972 4.70239C13.9683 4.8493 14.3041 4.71362 14.6587 4.57425C14.8341 4.4974 15.0008 4.40718 15.1684 4.31459C15.3238 4.25 15.3238 4.25 15.5352 4.22068C15.799 4.17786 15.9643 4.13482 16.187 3.98437C16.3908 3.63236 16.4641 3.2181 16.5489 2.82431C16.718 2.0479 16.8894 1.32811 17.5816 0.863278C17.8537 0.730938 18.0785 0.712708 18.3797 0.710119ZM16.6519 9.6289C16.6117 9.64903 16.5716 9.66916 16.5303 9.6899C15.1883 10.3631 14.0194 11.2965 13.2652 12.6172C13.2404 12.6579 13.2157 12.6987 13.1902 12.7407C12.5844 13.7724 12.2512 14.8267 12.0698 16.0039C12.0523 16.0985 12.0523 16.0985 12.0343 16.1951C11.8469 17.4535 12.1194 18.9505 12.6615 20.0962C12.7447 20.2775 12.8152 20.4623 12.8875 20.6482C13.0527 21.0463 13.2694 21.374 13.5308 21.7148C13.5678 21.7646 13.6047 21.8143 13.6428 21.8656C14.0988 22.4683 14.5792 22.9958 15.1909 23.4414C15.2331 23.4754 15.2752 23.5094 15.3186 23.5444C15.6335 23.7962 15.9672 23.9726 16.331 24.1457C16.5191 24.2383 16.5191 24.2383 16.6757 24.3371C16.9038 24.4676 17.1387 24.5512 17.3865 24.6367C17.4363 24.6541 17.4861 24.6714 17.5374 24.6893C19.7307 25.4401 22.0567 25.2517 24.1226 24.2424C24.5654 24.0177 24.9618 23.7503 25.3511 23.4414C25.4076 23.3983 25.4641 23.3553 25.5223 23.3109C26.1696 22.8096 26.683 22.2584 27.1441 21.582C27.1878 21.5184 27.2316 21.4548 27.2766 21.3893C27.6974 20.7388 27.9862 20.0388 28.2356 19.3076C28.2697 19.2099 28.2697 19.2099 28.3044 19.1102C28.7488 17.7592 28.689 16.0055 28.2097 14.6716C28.1653 14.547 28.1241 14.4211 28.0872 14.2939C27.9542 13.8421 27.7604 13.4356 27.5425 13.0198C27.4999 12.9384 27.4999 12.9384 27.4565 12.8553C27.3067 12.5759 27.1521 12.3277 26.9448 12.0859C26.912 12.0413 26.8791 11.9967 26.8452 11.9508C26.3162 11.2358 25.7196 10.677 24.9527 10.2266C24.8554 10.1593 24.7586 10.0915 24.6621 10.0232C23.6281 9.33445 22.2972 8.89364 21.0596 8.85278C20.9869 8.85033 20.9142 8.84788 20.8393 8.84535C19.3165 8.80249 18.0227 8.921 16.6519 9.6289Z" fill="#000000"/>
<path d="M18.3797 0.710119C18.4253 0.709567 18.4709 0.709014 18.5179 0.708444C18.6681 0.706849 18.8183 0.706262 18.9686 0.705823C19.0737 0.705227 19.1788 0.704621 19.284 0.704006C19.5043 0.702912 19.7246 0.7024 19.9449 0.702208C20.2258 0.701851 20.5065 0.699352 20.7873 0.696314C21.0046 0.694328 21.2218 0.693859 21.439 0.693792C21.5425 0.693515 21.6459 0.692696 21.7493 0.691301C22.4284 0.682873 22.9969 0.725711 23.5187 1.21113C23.6656 1.46577 23.7628 1.7267 23.857 2.00464C23.8772 2.06258 23.8975 2.12053 23.9184 2.18023C24.0698 2.62675 24.1783 3.07557 24.2433 3.54279C24.2667 3.70242 24.2667 3.70242 24.355 3.91797C24.5229 4.01521 24.6389 4.06519 24.8198 4.11718C24.9049 4.1483 24.9897 4.17995 25.0743 4.21212C25.1624 4.24417 25.2505 4.27616 25.3386 4.3081C25.6585 4.4244 25.9575 4.54912 26.2559 4.71484C26.4571 4.81832 26.5196 4.85039 26.7498 4.8269C26.9674 4.70187 27.1755 4.56774 27.3822 4.42535C27.834 4.11829 28.3127 3.8564 28.7941 3.59916C28.9314 3.53119 28.9314 3.53119 29.0034 3.45312C29.1267 3.44197 29.1267 3.44197 29.2815 3.44067C29.3318 3.43973 29.382 3.43879 29.4338 3.43782C29.8023 3.47152 30.0403 3.59339 30.2976 3.85493C30.3528 3.91033 30.408 3.96573 30.4648 4.02281C30.5523 4.11267 30.5523 4.11267 30.6415 4.20434C30.7345 4.29815 30.8275 4.39195 30.9205 4.48575C31.0502 4.61684 31.1792 4.74853 31.3082 4.88022C31.5345 5.11096 31.7619 5.34073 31.9892 5.57052C32.11 5.69282 32.2306 5.81534 32.351 5.93812C32.4055 5.99352 32.4601 6.04892 32.5163 6.106C32.5642 6.15485 32.6121 6.2037 32.6614 6.25404C32.7932 6.38628 32.7932 6.38628 32.9878 6.50781C32.9878 6.55164 32.9878 6.59547 32.9878 6.64062C33.0536 6.66254 33.1193 6.68445 33.187 6.70703C33.187 6.75086 33.187 6.79468 33.187 6.83984C33.2528 6.86175 33.3185 6.88367 33.3863 6.90625C33.3863 6.95008 33.3863 6.9939 33.3863 7.03906C33.452 7.06097 33.5177 7.08289 33.5855 7.10547C33.7886 7.40709 33.9746 7.73011 33.9839 8.10156C33.8879 8.48918 33.717 8.79917 33.4527 9.09765C33.3077 9.30163 33.2549 9.41923 33.2202 9.67041C33.1837 9.91716 33.1595 9.93523 32.9878 10.0937C32.8357 10.3924 32.7467 10.6217 32.7886 10.957C32.8316 11.0688 32.8752 11.1805 32.9263 11.2888C33.0252 11.5027 33.1054 11.724 33.1894 11.944C33.248 12.0961 33.248 12.0961 33.3863 12.2187C33.4138 12.377 33.4138 12.377 33.4278 12.5591C33.4327 12.6195 33.4377 12.6799 33.4428 12.7422C33.4461 12.7886 33.4493 12.835 33.4527 12.8828C33.5199 12.8877 33.5199 12.8877 33.5886 12.8927C33.6478 12.8976 33.7071 12.9026 33.7681 12.9077C33.8266 12.9123 33.8852 12.917 33.9455 12.9217C34.1167 12.9492 34.1167 12.9492 34.2454 13.0156C34.4295 13.1049 34.594 13.1103 34.7974 13.1235C34.869 13.1285 34.9405 13.1335 35.0142 13.1386C35.0959 13.1435 35.0959 13.1435 35.1792 13.1484C35.2011 13.2142 35.2231 13.2799 35.2456 13.3477C35.3231 13.3385 35.4006 13.3293 35.4804 13.3199C35.7289 13.3202 35.8451 13.3744 36.0298 13.5393C36.1115 13.6221 36.1918 13.7063 36.2708 13.7917C36.3122 13.8333 36.3536 13.8749 36.3962 13.9177C36.7494 14.2847 36.7808 14.5543 36.7837 15.0635C36.784 15.1078 36.7843 15.1521 36.7847 15.1977C36.7856 15.3434 36.7861 15.4891 36.7865 15.6348C36.7868 15.7364 36.7872 15.838 36.7876 15.9396C36.7883 16.1523 36.7887 16.3649 36.7889 16.5775C36.7893 16.8498 36.7909 17.1222 36.7928 17.3945C36.794 17.6042 36.7944 17.8139 36.7945 18.0236C36.7947 18.124 36.7952 18.2245 36.7961 18.3249C36.7972 18.4652 36.7971 18.6055 36.7966 18.7459C36.7969 18.8257 36.7971 18.9055 36.7974 18.9877C36.7707 19.21 36.7211 19.2936 36.5738 19.457C36.5131 19.5863 36.4583 19.7167 36.4046 19.849C36.1428 20.2269 35.7411 20.3785 35.312 20.4905C35.2634 20.504 35.2148 20.5175 35.1648 20.5314C35.0149 20.5728 34.8647 20.6128 34.7144 20.6523C34.5749 20.6894 34.4354 20.7264 34.296 20.7635C34.1738 20.7957 34.0513 20.8272 33.9289 20.8586C33.8594 20.8782 33.7899 20.8978 33.7183 20.918C33.6583 20.9317 33.5983 20.9454 33.5364 20.9595C33.3036 21.101 33.265 21.3211 33.1912 21.5696C33.0467 22.0203 32.8783 22.4327 32.6625 22.8549C32.55 23.1441 32.5484 23.3445 32.6695 23.6308C32.7047 23.6915 32.7399 23.7523 32.7761 23.8149C32.8108 23.8761 32.8455 23.9372 32.8812 24.0001C32.9821 24.1686 32.9821 24.1686 33.0882 24.3044C33.205 24.4617 33.2942 24.6257 33.3863 24.7986C33.484 24.9816 33.5793 25.1588 33.6955 25.3309C33.8664 25.6549 33.8284 26.0078 33.7847 26.3633C33.5729 27.0053 32.8186 27.548 32.3222 27.9739C32.0055 28.2536 31.689 28.538 31.4605 28.895C31.3003 29.1252 31.1157 29.257 30.8919 29.4226C30.7202 29.5585 30.5711 29.705 30.4187 29.8621C29.8644 30.4221 29.8644 30.4221 29.4309 30.4597C28.9413 30.4426 28.4172 30.1599 28.0738 29.8164C27.9413 29.7712 27.8084 29.7271 27.6753 29.6836C27.4288 29.5796 27.1842 29.4712 26.9448 29.3516C26.4245 29.2432 26.059 29.4433 25.6159 29.6836C25.2883 29.858 24.9956 29.9529 24.6232 29.9923C24.4732 30.0047 24.4732 30.0047 24.355 30.1484C24.3131 30.3117 24.2768 30.4733 24.2429 30.6382C24.1411 31.0943 24.0171 31.5395 23.8694 31.9829C23.8436 32.0654 23.8436 32.0654 23.8172 32.1495C23.6455 32.6488 23.3788 32.9243 22.9441 33.214C22.5188 33.4179 22.0393 33.3741 21.5784 33.3712C21.4762 33.3714 21.374 33.3716 21.2718 33.372C21.0584 33.3724 20.845 33.3718 20.6315 33.3706C20.3591 33.3691 20.0868 33.3699 19.8144 33.3715C19.6036 33.3725 19.3928 33.3722 19.182 33.3715C19.0816 33.3713 18.9812 33.3715 18.8808 33.3721C18.2491 33.3752 17.7995 33.3511 17.2906 32.9437C16.9229 32.539 16.7745 32.1413 16.6353 31.6177C16.5732 31.3974 16.5106 31.1772 16.4468 30.9575C16.4071 30.8188 16.3699 30.6794 16.3356 30.5393C16.2339 30.1758 16.2339 30.1758 15.9775 29.9132C15.8005 29.8339 15.6262 29.7752 15.44 29.7209C15.3178 29.6812 15.1957 29.6411 15.0737 29.6008C14.9854 29.5728 14.9854 29.5728 14.8954 29.5441C14.6895 29.4715 14.5017 29.3782 14.3107 29.273C14.0883 29.1688 13.8951 29.1565 13.6636 29.2187C13.4706 29.3223 13.2926 29.4369 13.1132 29.5625C12.9266 29.688 12.7361 29.7833 12.5347 29.8828C12.4057 29.9625 12.277 30.0428 12.1487 30.1235C11.7136 30.3782 11.4067 30.448 10.9119 30.385C10.1317 30.0428 9.52754 29.2796 8.94045 28.6833C8.79894 28.54 8.65733 28.3967 8.51551 28.2537C8.42795 28.1653 8.34056 28.0768 8.2534 27.988C8.00372 27.7357 7.74613 27.4978 7.47576 27.2677C7.04597 26.885 6.83107 26.543 6.7864 25.9607C6.79699 25.4705 7.03826 25.1098 7.2886 24.7031C7.34106 24.615 7.39337 24.5268 7.44554 24.4385C7.84473 23.7652 7.84473 23.7652 8.00765 23.5369C8.11317 23.3174 8.08585 23.2088 8.01907 22.9766C7.95189 22.829 7.8795 22.6838 7.80325 22.5408C7.60317 22.1589 7.44452 21.7743 7.30442 21.3657C7.21255 21.1622 7.12572 21.0626 6.95657 20.918C6.78989 20.8507 6.78989 20.8507 6.60534 20.8142C6.53729 20.7983 6.46923 20.7824 6.39912 20.766C6.32833 20.7504 6.25753 20.7348 6.18459 20.7187C4.59215 20.3605 4.59215 20.3605 4.15869 19.709C4.02063 19.4591 4.00141 19.2528 4.00138 18.9656C4.00102 18.9189 4.00066 18.8722 4.00029 18.824C3.99946 18.6711 4.00055 18.5182 4.00175 18.3652C4.00174 18.2581 4.00164 18.1511 4.00146 18.044C4.00136 17.8202 4.00219 17.5965 4.00371 17.3727C4.0056 17.0865 4.00541 16.8004 4.00457 16.5142C4.0041 16.2933 4.00462 16.0724 4.00545 15.8516C4.00575 15.7461 4.00577 15.6406 4.00551 15.5351C4.00532 15.3874 4.00642 15.2399 4.00786 15.0922C4.00822 15.0084 4.00858 14.9246 4.00895 14.8382C4.05389 14.4388 4.24961 14.1319 4.53378 13.8569C4.82959 13.6583 5.16767 13.5784 5.50834 13.4844C5.69684 13.432 5.87156 13.3761 6.05178 13.302C6.30373 13.2108 6.54742 13.1576 6.81053 13.1106C6.96739 13.0832 6.96739 13.0832 7.15579 13.0156C7.22841 12.8939 7.22841 12.8939 7.28211 12.742C7.31531 12.6569 7.31531 12.6569 7.34917 12.5701C7.37164 12.5103 7.39411 12.4505 7.41726 12.3889C7.46214 12.2728 7.50701 12.1567 7.55189 12.0405C7.57405 11.9826 7.59621 11.9247 7.61904 11.865C7.68822 11.6844 7.75779 11.5041 7.82841 11.3241C7.84909 11.2711 7.86976 11.2181 7.89107 11.1635C7.95266 11.0234 7.95266 11.0234 8.08547 10.8242C8.06711 10.5365 8.00291 10.3784 7.81985 10.1602C7.75272 10.0499 7.68639 9.93919 7.62063 9.82812C7.59084 9.78104 7.56105 9.73396 7.53036 9.68545C7.32156 9.35114 7.13668 9.00798 6.96487 8.65356C6.94426 8.61257 6.92365 8.57158 6.90242 8.52934C6.7663 8.24134 6.71688 8.01942 6.75735 7.70312C6.91837 7.35748 7.13062 7.09734 7.39236 6.82324C7.42433 6.789 7.4563 6.75476 7.48924 6.71948C7.57666 6.62617 7.66501 6.53375 7.75344 6.4414C7.79102 6.40066 7.8286 6.35991 7.86732 6.31793C7.95266 6.24218 7.95266 6.24218 8.08547 6.24218C8.11834 6.14357 8.11834 6.14357 8.15188 6.04297C8.19571 6.04297 8.23954 6.04297 8.28469 6.04297C8.31756 5.94435 8.31756 5.94435 8.3511 5.84375C8.44461 5.75237 8.44461 5.75237 8.56899 5.65179C8.81988 5.43914 9.05007 5.21319 9.27871 4.97735C9.31383 4.94139 9.34895 4.90542 9.38513 4.86836C9.53137 4.71858 9.67748 4.56869 9.82231 4.41754C9.92948 4.30592 10.0377 4.19541 10.1461 4.08502C10.178 4.05119 10.21 4.01736 10.2428 3.98251C10.4883 3.73516 10.7384 3.60034 11.0738 3.51953C11.7735 3.51953 12.3552 3.9636 12.9331 4.3164C13.087 4.40721 13.2419 4.49498 13.398 4.58203C13.4637 4.62175 13.5295 4.66147 13.5972 4.70239C13.9683 4.8493 14.3041 4.71362 14.6587 4.57425C14.8341 4.4974 15.0008 4.40718 15.1684 4.31459C15.3238 4.25 15.3238 4.25 15.5352 4.22068C15.799 4.17786 15.9643 4.13482 16.187 3.98437C16.3908 3.63236 16.4641 3.2181 16.5489 2.82431C16.718 2.0479 16.8894 1.32811 17.5816 0.863278C17.8537 0.730938 18.0785 0.712708 18.3797 0.710119ZM17.8472 1.99218C17.7615 2.18785 17.7615 2.18785 17.7019 2.39892C17.5832 2.7857 17.5832 2.7857 17.5152 2.92187C17.4971 3.07022 17.4856 3.21855 17.4739 3.36752C17.4471 3.52942 17.3907 3.64029 17.3159 3.78515C17.3077 3.85637 17.2995 3.92759 17.291 4.00097C17.1972 4.56379 17.1972 4.56379 16.9839 4.78125C16.739 4.89133 16.4949 4.96841 16.2371 5.04142C16.037 5.09911 15.86 5.16207 15.6724 5.25024C15.3983 5.37899 15.1174 5.4787 14.8309 5.57631C14.6551 5.64072 14.6551 5.64072 14.4903 5.74855C14.2444 5.89246 14.0124 5.91867 13.73 5.91015C13.435 5.80025 13.1943 5.61939 12.9331 5.44531C12.736 5.33087 12.5358 5.22216 12.3355 5.11328C12.2723 5.07861 12.2091 5.04394 12.144 5.00822C11.9646 4.90991 11.7852 4.81163 11.605 4.71484C11.5596 4.68771 11.5141 4.66057 11.4673 4.63261C11.3429 4.57368 11.3429 4.57368 11.2141 4.58566C11.0041 4.6796 10.8521 4.83172 10.6878 4.98877C10.6524 5.02192 10.6169 5.05507 10.5804 5.08922C10.3551 5.30112 10.1355 5.51819 9.91891 5.73895C9.80979 5.84595 9.69627 5.94426 9.57961 6.04297C9.24879 6.32699 8.94628 6.63973 8.64111 6.95073C8.4211 7.17372 8.19823 7.3752 7.95266 7.57031C7.84565 7.75515 7.81985 7.87174 7.81985 8.08496C7.89815 8.33943 8.02068 8.51622 8.17289 8.73268C8.3657 9.01854 8.52069 9.32514 8.68313 9.6289C8.8091 9.85533 8.93774 10.0772 9.08157 10.293C9.16454 10.8668 9.03743 11.2657 8.74954 11.7539C8.5974 12.0355 8.49949 12.3039 8.4175 12.613C8.32763 12.9395 8.22841 13.2406 8.08547 13.5469C8.06356 13.6126 8.04165 13.6784 8.01907 13.7461C7.73014 13.9715 7.38857 14.0349 7.03957 14.1196C6.92504 14.148 6.81056 14.1765 6.69613 14.2052C6.64573 14.2175 6.59533 14.2298 6.54341 14.2425C6.42482 14.2673 6.42482 14.2673 6.35891 14.3437C6.24455 14.3669 6.12959 14.3872 6.01443 14.406C5.52624 14.4711 5.52624 14.4711 5.12163 14.7208C5.00347 14.9213 5.0055 15.0589 5.00501 15.2911C5.00438 15.3753 5.00375 15.4595 5.00311 15.5463C5.00346 15.6379 5.00387 15.7296 5.00433 15.8213C5.00419 15.9156 5.004 16.0098 5.00375 16.1041C5.00346 16.3015 5.00388 16.4989 5.00481 16.6962C5.00595 16.949 5.0053 17.2018 5.0041 17.4546C5.00338 17.6492 5.00361 17.8438 5.00413 18.0384C5.00426 18.1316 5.0041 18.2248 5.00363 18.3179C5.00313 18.4483 5.00404 18.5786 5.00501 18.7089C5.00517 18.783 5.00533 18.8571 5.00549 18.9335C5.03383 19.148 5.0793 19.2377 5.23 19.3906C5.42655 19.4754 5.42655 19.4754 5.64919 19.5317C5.75975 19.5628 5.75975 19.5628 5.87254 19.5945C5.94538 19.6149 6.01823 19.6353 6.09329 19.6562C6.161 19.6794 6.22871 19.7026 6.29847 19.7265C6.48036 19.7854 6.65183 19.8217 6.84036 19.8513C7.09254 19.8958 7.34017 19.9463 7.58743 20.0132C7.64016 20.0274 7.69289 20.0416 7.74722 20.0562C7.9857 20.1675 8.06364 20.3279 8.15318 20.5691C8.17466 20.6404 8.19615 20.7117 8.21829 20.7852C8.39725 21.3383 8.57569 21.8654 8.87405 22.3665C9.10389 22.7794 9.18552 23.1077 9.08157 23.5742C8.95822 23.8818 8.794 24.1586 8.61672 24.4375C8.58901 24.4814 8.5613 24.5253 8.53274 24.5706C8.50379 24.6165 8.47483 24.6623 8.445 24.7096C8.41571 24.7561 8.38643 24.8026 8.35625 24.8505C8.29912 24.9406 8.24133 25.0302 8.18278 25.1194C7.99289 25.4136 7.85172 25.6938 7.75344 26.0312C7.92587 26.3701 8.16996 26.5805 8.45849 26.8219C8.69314 27.0281 8.90994 27.2512 9.12802 27.4747C9.32372 27.6737 9.52713 27.8502 9.74563 28.0234C9.83417 28.1341 9.92271 28.2448 10.0113 28.3555C10.1208 28.4454 10.2316 28.5339 10.3433 28.6211C10.4906 28.7647 10.6351 28.91 10.7754 29.0605C10.8265 29.1142 10.8265 29.1142 10.8787 29.1689C10.9096 29.2022 10.9405 29.2354 10.9723 29.2696C11.1029 29.3751 11.1701 29.4098 11.3394 29.418C11.537 29.3224 11.537 29.3224 11.742 29.1814C11.8192 29.1315 11.8965 29.0818 11.9739 29.0322C12.0124 29.0074 12.0509 28.9826 12.0905 28.957C12.25 28.857 12.4144 28.7678 12.5803 28.6792C13.1558 28.3992 13.1558 28.3992 13.6636 28.0234C14.0658 27.9838 14.293 28.082 14.6265 28.2808C14.8733 28.4248 15.1021 28.5565 15.3798 28.6299C15.5894 28.6875 15.5894 28.6875 15.7222 28.8203C15.8521 28.8752 15.8521 28.8752 16.0003 28.9199C16.0535 28.937 16.1068 28.9542 16.1616 28.9718C16.2979 29.0129 16.4354 29.0498 16.573 29.0859C16.8855 29.184 17.0035 29.2633 17.1582 29.5549C17.2538 29.7992 17.3028 30.0482 17.3473 30.3061C17.3909 30.5232 17.4537 30.7326 17.5152 30.9453C17.5355 31.0283 17.5559 31.1114 17.5769 31.1969C17.5976 31.281 17.6183 31.365 17.6397 31.4517C17.66 31.5361 17.6804 31.6205 17.7014 31.7074C17.7861 31.9572 17.8601 32.0881 18.0464 32.2734C18.2495 32.3236 18.2495 32.3236 18.4797 32.3164C18.5226 32.317 18.5655 32.3176 18.6097 32.3182C18.7512 32.3196 18.8925 32.3187 19.0339 32.3175C19.1325 32.3178 19.2311 32.3181 19.3297 32.3185C19.5362 32.319 19.7426 32.3183 19.9491 32.3167C20.2134 32.3148 20.4775 32.3159 20.7418 32.3179C20.9454 32.3191 21.1489 32.3187 21.3525 32.3179C21.4499 32.3176 21.5473 32.3179 21.6447 32.3187C21.7811 32.3195 21.9173 32.3182 22.0537 32.3164C22.1312 32.3161 22.2087 32.3159 22.2886 32.3156C22.5579 32.2608 22.6565 32.1517 22.8277 31.9414C22.9041 31.7478 22.9041 31.7478 22.9397 31.543C22.9933 31.2853 23.0588 31.0554 23.1597 30.8125C23.2054 30.6357 23.2494 30.4587 23.2925 30.2812C23.3236 30.1552 23.3555 30.0293 23.388 29.9036C23.4104 29.8148 23.4104 29.8148 23.4334 29.7243C23.5302 29.4365 23.6037 29.2639 23.8806 29.1207C23.9536 29.0955 24.0266 29.0704 24.1018 29.0444C24.2183 29.003 24.2183 29.003 24.3371 28.9606C24.4446 28.924 24.4446 28.924 24.5542 28.8867C25.4047 28.5888 25.4047 28.5888 26.1729 28.1313C26.4146 27.9817 26.5302 27.9772 26.812 28.0234C27.0669 28.1379 27.3038 28.2771 27.5425 28.4219C27.5952 28.4537 27.6478 28.4856 27.702 28.5184C27.7535 28.5495 27.8049 28.5807 27.8579 28.6128C28.1443 28.7852 28.4332 28.9526 28.7254 29.115C28.7675 29.1393 28.8096 29.1637 28.8531 29.1888C29.0344 29.288 29.1695 29.3522 29.3783 29.3479C29.8547 29.1567 30.2233 28.744 30.5448 28.3562C30.7231 28.1557 30.9263 27.9866 31.129 27.8112C31.281 27.6735 31.3993 27.5198 31.5269 27.3594C31.6593 27.2377 31.7951 27.1206 31.9315 27.0035C32.0698 26.8845 32.2025 26.7654 32.3238 26.6289C32.3238 26.5851 32.3238 26.5412 32.3238 26.4961C32.3676 26.4961 32.4114 26.4961 32.4566 26.4961C32.6331 26.3247 32.7137 26.2018 32.7678 25.9607C32.7043 25.5965 32.5293 25.3355 32.3338 25.0254C32.1862 24.7879 32.046 24.5459 31.9046 24.3047C31.8759 24.2562 31.8471 24.2077 31.8176 24.1578C31.7904 24.1117 31.7632 24.0657 31.7352 24.0183C31.711 23.9775 31.6868 23.9366 31.6619 23.8946C31.4858 23.5838 31.3988 23.3392 31.4605 22.9766C31.5529 22.7445 31.6719 22.5309 31.7925 22.3125C32.0042 21.9196 32.1621 21.5181 32.3072 21.0964C32.3281 21.0372 32.3491 20.9779 32.3707 20.9168C32.4871 20.593 32.4871 20.593 32.523 20.2539C33.4195 19.9551 33.4195 19.9551 33.5686 19.9055C33.6692 19.8719 33.7697 19.8378 33.87 19.8033C34.1057 19.7229 34.3394 19.6479 34.5816 19.5898C34.78 19.5416 34.9758 19.4881 35.1709 19.428C35.2201 19.413 35.2692 19.398 35.3198 19.3826C35.4683 19.3265 35.4683 19.3265 35.5777 19.125C35.5984 18.9349 35.5984 18.9349 35.5959 18.7165C35.5965 18.6322 35.5972 18.548 35.5978 18.4613C35.5978 18.3692 35.5977 18.2772 35.5976 18.1852C35.5979 18.0908 35.5982 17.9965 35.5985 17.9021C35.599 17.7043 35.599 17.5065 35.5986 17.3088C35.5982 17.0555 35.5994 16.8022 35.6009 16.5489C35.6019 16.354 35.6019 16.1591 35.6017 15.9642C35.6018 15.8708 35.6021 15.7775 35.6028 15.6841C35.6036 15.5534 35.603 15.4228 35.6024 15.2921C35.6024 15.2178 35.6025 15.1435 35.6025 15.0669C35.5748 14.8531 35.5264 14.7633 35.3784 14.6094C35.2466 14.5431 35.2466 14.5431 35.096 14.5079C35.0397 14.4925 34.9835 14.4771 34.9256 14.4612C34.8655 14.4457 34.8054 14.4302 34.7434 14.4143C34.6818 14.3975 34.6201 14.3808 34.5566 14.3635C34.3659 14.3118 34.1749 14.2613 33.9839 14.2109C33.812 14.1648 33.6402 14.1182 33.4685 14.0712C33.3659 14.0432 33.2632 14.0156 33.1604 13.9884C32.9411 13.929 32.7803 13.8734 32.5894 13.7461C32.4779 13.5187 32.3979 13.3098 32.3321 13.0654C32.2487 12.7877 32.1341 12.5373 32.0114 12.275C31.9294 12.0949 31.8557 11.9135 31.7842 11.729C31.7153 11.5516 31.6511 11.4084 31.5476 11.2476C31.4222 11.0205 31.3709 10.815 31.3941 10.5586C31.4817 10.3229 31.5979 10.1104 31.7261 9.89453C31.7581 9.84034 31.7901 9.78616 31.8231 9.73033C31.9291 9.55626 32.0388 9.38503 32.1494 9.21386C32.2299 9.08674 32.3102 8.95946 32.3902 8.83203C32.4417 8.75088 32.4417 8.75088 32.4942 8.66809C32.5392 8.5931 32.5392 8.5931 32.5852 8.5166C32.6119 8.47311 32.6385 8.42963 32.6659 8.38482C32.7515 8.15593 32.7551 8.01456 32.7222 7.76953C32.5814 7.563 32.4056 7.39729 32.2254 7.22505C32.1746 7.17475 32.1238 7.12445 32.0715 7.07262C31.909 6.91228 31.7449 6.75365 31.5808 6.59497C31.4716 6.48746 31.3624 6.37986 31.2533 6.27215C30.6806 5.70252 30.6806 5.70252 30.0659 5.17968C29.9553 5.06901 29.8446 4.95833 29.7339 4.84765C29.5118 4.62718 29.5118 4.62718 29.2151 4.57788C28.8822 4.68886 28.616 4.88136 28.3287 5.0793C28.0205 5.28967 27.7123 5.47383 27.3739 5.63208C27.2102 5.70749 27.2102 5.70749 27.0637 5.80224C26.8212 5.94227 26.6881 5.99533 26.41 5.92598C26.1426 5.81713 25.8947 5.69378 25.6499 5.54077C25.4704 5.43754 25.2998 5.37758 25.1021 5.31665C24.7981 5.21931 24.512 5.1077 24.2243 4.97009C24.0739 4.9016 24.0739 4.9016 23.8362 4.87256C23.5938 4.768 23.5781 4.73573 23.4793 4.50317C23.3506 4.12443 23.2523 3.73589 23.155 3.34807C23.0996 3.12713 23.0996 3.12713 23.023 2.946C22.9577 2.78207 22.9267 2.63085 22.8982 2.45703C22.8495 2.1995 22.7919 2.00407 22.6284 1.79297C22.4432 1.70036 22.2897 1.71657 22.0824 1.71481C21.9956 1.71395 21.9087 1.7131 21.8192 1.71222C21.7239 1.71168 21.6286 1.71119 21.5333 1.71074C21.4854 1.71047 21.4375 1.7102 21.3881 1.70992C21.1346 1.70853 20.8811 1.70758 20.6277 1.70696C20.3658 1.70622 20.104 1.70394 19.8421 1.7013C19.6408 1.69957 19.4394 1.69901 19.2381 1.69877C19.1416 1.69845 19.045 1.69768 18.9485 1.69645C18.8134 1.69483 18.6783 1.69505 18.5432 1.69535C18.4663 1.69496 18.3895 1.69457 18.3103 1.69417C18.0696 1.73365 17.9948 1.80188 17.8472 1.99218Z" fill="#FCFCFC"/>
<path d="M18.4448 11.0234C18.5804 11.1307 18.7132 11.2416 18.8433 11.3555C18.9594 11.4125 19.0772 11.4662 19.1961 11.5173C19.4353 11.6206 19.647 11.7285 19.8601 11.8784C20.1829 12.1049 20.5311 12.269 20.8863 12.4372C21.0926 12.5463 21.2532 12.6692 21.4331 12.8164C21.5478 12.8828 21.6641 12.9464 21.7818 13.0073C22.0773 13.1645 22.3529 13.3371 22.6287 13.5264C22.7713 13.6235 22.7713 13.6235 22.9771 13.7212C23.1597 13.8125 23.1597 13.8125 23.3091 13.937C23.523 14.1023 23.7452 14.2078 23.9898 14.3209C24.1558 14.4102 24.1558 14.4102 24.3164 14.5399C24.5041 14.6887 24.6916 14.7874 24.907 14.8916C24.978 14.9262 25.0489 14.9608 25.1221 14.9964C25.1757 15.0221 25.2294 15.0478 25.2847 15.0742C25.2847 15.118 25.2847 15.1619 25.2847 15.207C25.3943 15.207 25.5038 15.207 25.6167 15.207C25.6386 15.2728 25.6606 15.3385 25.6831 15.4062C25.8357 15.4798 25.8357 15.4798 26.0152 15.5391C26.5402 15.7769 26.9072 15.9819 27.1599 16.5162C27.2686 16.8424 27.2832 17.1831 27.1311 17.4947C26.9902 17.6939 26.8311 17.8662 26.6585 18.0376C26.5971 18.1001 26.5357 18.1626 26.4725 18.227C26.283 18.3926 26.1098 18.4892 25.8823 18.5937C25.7706 18.681 25.6599 18.7695 25.5503 18.8594C25.342 19.0022 25.134 19.0915 24.8987 19.179C24.6072 19.2916 24.3867 19.436 24.1436 19.63C23.9155 19.8052 23.7141 19.9219 23.4253 19.9219C23.4034 19.9876 23.3815 20.0534 23.3589 20.1211C23.2352 20.2137 23.2352 20.2137 23.0725 20.3079C23.0131 20.3423 22.9537 20.3767 22.8925 20.4121C22.6221 20.559 22.3465 20.6937 22.0684 20.8254C21.9003 20.9061 21.9003 20.9061 21.7997 21.0171C21.608 21.2072 21.3435 21.2959 21.1016 21.4095C20.9009 21.5076 20.9009 21.5076 20.7444 21.6453C20.5208 21.8195 20.2844 21.9209 20.0261 22.0344C19.6296 22.214 19.2821 22.4092 18.9325 22.6707C18.3716 23.0549 17.7914 23.2331 17.1167 23.1758C16.775 23.0486 16.5349 22.732 16.3198 22.4453C16.2466 22.2256 16.2449 22.063 16.2446 21.8315C16.2443 21.7447 16.244 21.6578 16.2437 21.5683C16.2437 21.4718 16.2438 21.3753 16.2438 21.2788C16.2436 21.1774 16.2434 21.076 16.2431 20.9745C16.2425 20.6987 16.2424 20.4229 16.2423 20.1472C16.2423 19.9169 16.242 19.6867 16.2418 19.4565C16.2413 18.9133 16.2411 18.3701 16.2411 17.8269C16.2412 17.2667 16.2405 16.7064 16.2394 16.1461C16.2386 15.6651 16.2382 15.1841 16.2382 14.7031C16.2383 14.4158 16.2381 14.1286 16.2374 13.8413C16.2367 13.571 16.2367 13.3007 16.2372 13.0304C16.2373 12.9313 16.2371 12.8322 16.2367 12.7331C16.2362 12.5976 16.2366 12.4621 16.237 12.3266C16.237 12.2508 16.237 12.175 16.2369 12.097C16.2689 11.69 16.3893 11.4498 16.6809 11.1687C16.7329 11.1176 16.7849 11.0665 16.8384 11.0138C17.2794 10.6404 17.9561 10.8335 18.4448 11.0234Z" fill="black"/>
<path d="M20.2544 7.69068C20.3208 7.68987 20.3871 7.68905 20.4555 7.68822C20.8213 7.6875 21.152 7.71498 21.5069 7.80473C21.6535 7.84121 21.7972 7.85783 21.9478 7.86915C22.1761 7.89158 22.3501 7.94508 22.562 8.03516C22.647 8.0516 22.7319 8.06803 22.8194 8.08497C23.7372 8.28045 24.6714 8.75109 25.4346 9.28365C25.5498 9.36685 25.5498 9.36685 25.6831 9.42969C25.6831 9.47352 25.6831 9.51735 25.6831 9.56251C25.7398 9.58844 25.7398 9.58844 25.7975 9.6149C26.0719 9.7608 26.3038 9.96741 26.5464 10.1602C26.6039 10.2026 26.6615 10.2451 26.7207 10.2888C26.9514 10.4891 27.1597 10.7126 27.3433 10.957C27.3433 11.0009 27.3433 11.0447 27.3433 11.0898C27.409 11.1118 27.4748 11.1337 27.5425 11.1563C27.6328 11.2701 27.6328 11.2701 27.7251 11.4177C27.8681 11.642 28.0164 11.8588 28.1734 12.0735C28.4273 12.4337 28.6154 12.8177 28.8042 13.2148C28.8387 13.2827 28.8732 13.3506 28.9088 13.4206C29.1248 13.8603 29.2296 14.3075 29.3069 14.7897C29.3285 14.9427 29.3285 14.9427 29.4019 15.0742C29.4142 15.2096 29.4234 15.3452 29.4309 15.481C29.4501 15.7928 29.48 16.0965 29.5271 16.4052C29.5952 16.8609 29.5953 17.2599 29.5064 17.7147C29.4515 18.0242 29.4392 18.3338 29.4247 18.6475C29.401 18.8674 29.342 19.0497 29.2691 19.2578C29.2622 19.3386 29.2554 19.4194 29.2483 19.5027C29.2156 19.8094 29.0916 20.058 28.9586 20.3335C28.876 20.5082 28.8058 20.6833 28.7378 20.864C28.6147 21.1746 28.4601 21.439 28.273 21.7148C28.2329 21.7775 28.1929 21.8402 28.1516 21.9047C27.7452 22.5218 27.2618 23.0474 26.7456 23.5742C26.707 23.6143 26.6684 23.6544 26.6287 23.6957C25.7206 24.6267 24.4026 25.3899 23.1597 25.7656C23.0994 25.7875 23.0392 25.8095 22.9771 25.832C22.7484 25.9024 22.5217 25.9498 22.2868 25.9939C22.0863 26.0308 22.0863 26.0308 21.8508 26.1005C21.3997 26.201 20.9366 26.1863 20.4768 26.185C20.3177 26.1848 20.1587 26.1864 19.9996 26.1881C19.4062 26.1905 18.8837 26.1401 18.312 25.9649C18.2085 25.9404 18.1048 25.9167 18.0008 25.8943C17.9532 25.8837 17.9056 25.8731 17.8565 25.8621C17.7607 25.8418 17.6645 25.8232 17.5681 25.8061C17.1545 25.728 16.8225 25.5634 16.4527 25.3672C16.2909 25.2867 16.1291 25.2064 15.9671 25.1265C15.6088 24.9491 15.2662 24.7612 14.9378 24.533C14.8976 24.5055 14.8575 24.478 14.8161 24.4497C14.7864 24.4238 14.7567 24.3978 14.7261 24.3711C14.7261 24.3273 14.7261 24.2834 14.7261 24.2383C14.6891 24.2217 14.6521 24.2051 14.614 24.188C14.4347 24.0916 14.2868 23.9761 14.1284 23.8482C14.0442 23.7806 14.0442 23.7806 13.9583 23.7117C13.8069 23.5832 13.6639 23.4559 13.5308 23.3086C13.5308 23.2648 13.5308 23.2209 13.5308 23.1758C13.465 23.1539 13.3993 23.132 13.3316 23.1094C13.2223 22.9858 13.1229 22.8635 13.0244 22.7317C12.9953 22.6931 12.9663 22.6545 12.9363 22.6148C12.2197 21.6521 11.6972 20.6654 11.3357 19.5201C11.2807 19.3313 11.2807 19.3313 11.2066 19.1914C10.8783 17.6942 10.7602 15.7686 11.4058 14.3438C11.4482 14.1964 11.4883 14.0483 11.5261 13.8997C11.8201 12.8456 12.4664 11.7126 13.2652 10.957C13.354 10.8466 13.4426 10.736 13.5308 10.625C13.6719 10.4714 13.6719 10.4714 13.7964 10.3594C13.8402 10.3594 13.8841 10.3594 13.9292 10.3594C13.9292 10.3156 13.9292 10.2717 13.9292 10.2266C14.0692 10.1047 14.2096 9.99061 14.3567 9.87794C14.3992 9.84501 14.4416 9.81209 14.4854 9.77816C14.7592 9.56758 15.0373 9.36734 15.3287 9.18145C15.4492 9.10249 15.5595 9.01679 15.6724 8.9275C15.9504 8.7242 16.2707 8.62247 16.5927 8.50753C16.7934 8.43827 16.7934 8.43827 16.9839 8.30079C17.3313 8.16126 17.6901 8.07095 18.0565 7.99729C18.1845 7.97254 18.1845 7.97254 18.312 7.90235C18.4514 7.87801 18.5912 7.85624 18.7312 7.83594C19.0335 7.79254 19.0335 7.79254 19.3333 7.73496C19.6383 7.67919 19.9452 7.69088 20.2544 7.69068ZM16.6519 9.62891C16.6117 9.64904 16.5716 9.66917 16.5303 9.6899C15.1883 10.3631 14.0194 11.2965 13.2652 12.6172C13.2404 12.6579 13.2157 12.6987 13.1902 12.7407C12.5844 13.7724 12.2512 14.8267 12.0698 16.0039C12.0523 16.0985 12.0523 16.0985 12.0343 16.1951C11.8469 17.4535 12.1194 18.9505 12.6615 20.0962C12.7447 20.2775 12.8152 20.4623 12.8875 20.6482C13.0527 21.0463 13.2694 21.374 13.5308 21.7148C13.5678 21.7646 13.6047 21.8143 13.6428 21.8656C14.0988 22.4683 14.5792 22.9958 15.1909 23.4414C15.2331 23.4754 15.2752 23.5094 15.3186 23.5444C15.6335 23.7962 15.9672 23.9726 16.331 24.1457C16.5191 24.2383 16.5191 24.2383 16.6757 24.3371C16.9038 24.4677 17.1387 24.5512 17.3865 24.6367C17.4363 24.6541 17.4861 24.6714 17.5374 24.6893C19.7307 25.4401 22.0567 25.2517 24.1226 24.2424C24.5654 24.0177 24.9618 23.7503 25.3511 23.4414C25.4076 23.3984 25.4641 23.3553 25.5223 23.3109C26.1696 22.8096 26.683 22.2584 27.1441 21.582C27.1878 21.5184 27.2316 21.4548 27.2766 21.3893C27.6974 20.7388 27.9862 20.0388 28.2356 19.3076C28.2697 19.2099 28.2697 19.2099 28.3044 19.1103C28.7488 17.7592 28.689 16.0055 28.2097 14.6716C28.1653 14.547 28.1241 14.4211 28.0872 14.294C27.9542 13.8421 27.7604 13.4356 27.5425 13.0198C27.4999 12.9384 27.4999 12.9384 27.4565 12.8553C27.3067 12.5759 27.1521 12.3277 26.9448 12.0859C26.912 12.0413 26.8791 11.9967 26.8452 11.9508C26.3162 11.2358 25.7196 10.677 24.9527 10.2266C24.8554 10.1593 24.7586 10.0915 24.6621 10.0232C23.6281 9.33445 22.2972 8.89364 21.0596 8.85279C20.9869 8.85034 20.9142 8.84789 20.8393 8.84536C19.3165 8.8025 18.0227 8.92101 16.6519 9.62891Z" fill="#FCFCFC"/>
<path d="M18.4448 11.0234C18.5804 11.1307 18.7132 11.2416 18.8433 11.3555C18.9594 11.4125 19.0772 11.4662 19.1961 11.5173C19.4353 11.6206 19.647 11.7285 19.8601 11.8784C20.1829 12.1049 20.5311 12.269 20.8863 12.4372C21.0926 12.5463 21.2532 12.6692 21.4331 12.8164C21.5478 12.8828 21.6641 12.9464 21.7818 13.0073C22.0773 13.1645 22.3529 13.3371 22.6287 13.5264C22.7713 13.6235 22.7713 13.6235 22.9771 13.7212C23.1597 13.8125 23.1597 13.8125 23.3091 13.937C23.523 14.1023 23.7452 14.2078 23.9898 14.3209C24.1558 14.4102 24.1558 14.4102 24.3164 14.5399C24.5041 14.6887 24.6916 14.7874 24.907 14.8916C24.978 14.9262 25.0489 14.9608 25.1221 14.9964C25.1757 15.0221 25.2294 15.0478 25.2847 15.0742C25.2847 15.118 25.2847 15.1619 25.2847 15.207C25.3943 15.207 25.5038 15.207 25.6167 15.207C25.6386 15.2728 25.6606 15.3385 25.6831 15.4062C25.8357 15.4798 25.8357 15.4798 26.0152 15.5391C26.5402 15.7769 26.9072 15.9819 27.1599 16.5162C27.2686 16.8424 27.2832 17.1831 27.1311 17.4947C26.9902 17.6939 26.8311 17.8662 26.6585 18.0376C26.5971 18.1001 26.5357 18.1626 26.4725 18.227C26.283 18.3926 26.1098 18.4892 25.8823 18.5937C25.7706 18.681 25.6599 18.7695 25.5503 18.8594C25.342 19.0022 25.134 19.0915 24.8987 19.179C24.6072 19.2916 24.3867 19.436 24.1436 19.63C23.9155 19.8052 23.7141 19.9219 23.4253 19.9219C23.4034 19.9876 23.3815 20.0534 23.3589 20.1211C23.2352 20.2137 23.2352 20.2137 23.0725 20.3079C23.0131 20.3423 22.9537 20.3767 22.8925 20.4121C22.6221 20.559 22.3465 20.6937 22.0684 20.8254C21.9003 20.9061 21.9003 20.9061 21.7997 21.0171C21.608 21.2072 21.3435 21.2959 21.1016 21.4095C20.9009 21.5076 20.9009 21.5076 20.7444 21.6453C20.5208 21.8195 20.2844 21.9209 20.0261 22.0344C19.6296 22.214 19.2821 22.4092 18.9325 22.6707C18.3716 23.0549 17.7914 23.2331 17.1167 23.1758C16.775 23.0486 16.5349 22.732 16.3198 22.4453C16.2466 22.2256 16.2449 22.063 16.2446 21.8315C16.2443 21.7447 16.244 21.6578 16.2437 21.5683C16.2437 21.4718 16.2438 21.3753 16.2438 21.2788C16.2436 21.1774 16.2434 21.0759 16.2431 20.9745C16.2425 20.6987 16.2424 20.4229 16.2423 20.1472C16.2423 19.9169 16.242 19.6867 16.2418 19.4565C16.2413 18.9133 16.2411 18.3701 16.2411 17.8269C16.2412 17.2667 16.2405 16.7064 16.2394 16.1461C16.2386 15.6651 16.2382 15.1841 16.2382 14.7031C16.2383 14.4158 16.2381 14.1286 16.2374 13.8413C16.2367 13.571 16.2367 13.3007 16.2372 13.0304C16.2373 12.9313 16.2371 12.8322 16.2367 12.7331C16.2362 12.5976 16.2366 12.4621 16.237 12.3266C16.237 12.2508 16.237 12.175 16.2369 12.097C16.2689 11.69 16.3893 11.4498 16.6809 11.1687C16.7329 11.1176 16.7849 11.0665 16.8384 11.0138C17.2794 10.6404 17.9561 10.8335 18.4448 11.0234ZM17.3159 12.0195C17.3095 12.149 17.3079 12.2786 17.308 12.4082C17.3079 12.4927 17.3078 12.5771 17.3077 12.6641C17.3079 12.7586 17.3082 12.8531 17.3084 12.9475C17.3084 13.0463 17.3084 13.1451 17.3084 13.2439C17.3084 13.513 17.3087 13.782 17.3092 14.0511C17.3096 14.3319 17.3097 14.6128 17.3097 14.8937C17.3099 15.4259 17.3105 15.9581 17.3112 16.4903C17.3119 17.0961 17.3123 17.7018 17.3126 18.3076C17.3133 19.554 17.3145 20.8004 17.3159 22.0469C17.5598 22.1104 17.5598 22.1104 17.7981 22.0529C17.8482 22.0213 17.8983 21.9897 17.9499 21.9571C18.0061 21.9225 18.0622 21.8878 18.1201 21.8521C18.2069 21.7965 18.2069 21.7965 18.2954 21.7397C18.4099 21.6682 18.5243 21.5968 18.6389 21.5255C18.723 21.4727 18.723 21.4727 18.8089 21.4188C19.0174 21.2911 19.2302 21.1727 19.4447 21.0553C19.5967 20.9718 19.7453 20.8836 19.8933 20.7935C20.1233 20.6545 20.3542 20.5175 20.5865 20.3826C20.8533 20.2275 21.1193 20.0711 21.3846 19.9136C21.4478 19.8761 21.511 19.8386 21.5761 19.8C21.7016 19.7255 21.827 19.6509 21.9524 19.5762C22.3172 19.3598 22.6854 19.1517 23.059 18.951C23.3412 18.7963 23.6154 18.6283 23.8902 18.4609C24.2043 18.2704 24.518 18.0808 24.8406 17.9048C24.9445 17.8469 25.0482 17.7887 25.1519 17.7305C25.2654 17.6675 25.2654 17.6675 25.3812 17.6034C25.4611 17.5573 25.541 17.5111 25.6209 17.4648C25.6956 17.4224 25.7703 17.3799 25.8473 17.3362C26.0301 17.2158 26.0301 17.2158 26.0541 17.0267C26.0297 16.8648 26.0297 16.8648 25.92 16.7761C25.876 16.7528 25.8321 16.7294 25.7869 16.7053C25.5815 16.5902 25.3866 16.4706 25.1934 16.3359C24.9953 16.2028 24.7987 16.0898 24.5833 15.9873C24.2873 15.8443 24.0134 15.678 23.7366 15.5017C23.2511 15.1926 22.7551 14.9051 22.2538 14.6226C21.9488 14.4504 21.6483 14.2742 21.3531 14.0857C21.2257 14.0066 21.0958 13.934 20.9641 13.8623C20.6444 13.687 20.3329 13.4991 20.0208 13.3108C19.6916 13.1124 19.3603 12.9181 19.028 12.7251C18.848 12.6199 18.6691 12.5131 18.4905 12.4055C18.4371 12.3736 18.3837 12.3417 18.3286 12.3088C18.234 12.2517 18.1399 12.1939 18.0464 12.135C17.6844 11.9066 17.6844 11.9066 17.3159 12.0195Z" fill="#FBFBFB"/>
</g>
<defs>
<filter id="filter0_d_1_94" x="-0.695778" y="0" width="42" height="42" filterUnits="userSpaceOnUse" color-interpolation-filters="sRGB">
<feFlood flood-opacity="0" result="BackgroundImageFix"/>
<feColorMatrix in="SourceAlpha" type="matrix" values="0 0 0 0 0 0 0 0 0 0 0 0 0 0 0 0 0 0 127 0" result="hardAlpha"/>
<feOffset dy="4"/>
<feGaussianBlur stdDeviation="2"/>
<feComposite in2="hardAlpha" operator="out"/>
<feColorMatrix type="matrix" values="0 0 0 0 0 0 0 0 0 0 0 0 0 0 0 0 0 0 0.25 0"/>
<feBlend mode="normal" in2="BackgroundImageFix" result="effect1_dropShadow_1_94"/>
<feBlend mode="normal" in="SourceGraphic" in2="effect1_dropShadow_1_94" result="shape"/>
</filter>
<clipPath id="clip0_1_94">
<rect width="34" height="34" fill="#FFFFFF" transform="translate(3.30422)"/>
</clipPath>
</defs>
</svg>
